<mxfile host="app.diagrams.net" modified="2021-01-27T07:08:45.854Z" agent="5.0 (Windows NT 10.0; Win64; x64) AppleWebKit/537.36 (KHTML, like Gecko) Chrome/87.0.4280.141 Safari/537.36" etag="tuhzw2dFoIaCPKmdgFkz" version="14.1.8" type="github">
  <diagram id="6jLpbE4ZbHyYhA1-_Lg1" name="Page-1">
    <mxGraphModel dx="1422" dy="762" grid="1" gridSize="10" guides="1" tooltips="1" connect="1" arrows="1" fold="1" page="1" pageScale="1" pageWidth="827" pageHeight="1169" math="0" shadow="0">
      <root>
        <mxCell id="0" />
        <mxCell id="1" parent="0" />
        <mxCell id="ESVv2EAXzNbeV4ChciWU-7" value="" style="rounded=0;whiteSpace=wrap;html=1;" vertex="1" parent="1">
          <mxGeometry x="140" y="110" width="430" height="310" as="geometry" />
        </mxCell>
        <mxCell id="ESVv2EAXzNbeV4ChciWU-2" value="" style="rounded=0;whiteSpace=wrap;html=1;" vertex="1" parent="1">
          <mxGeometry x="140" y="350" width="430" height="70" as="geometry" />
        </mxCell>
        <mxCell id="ESVv2EAXzNbeV4ChciWU-3" value="自定义指令" style="rounded=0;whiteSpace=wrap;html=1;" vertex="1" parent="1">
          <mxGeometry x="310" y="360" width="90" height="50" as="geometry" />
        </mxCell>
        <mxCell id="ESVv2EAXzNbeV4ChciWU-4" value="vue" style="rounded=0;whiteSpace=wrap;html=1;" vertex="1" parent="1">
          <mxGeometry x="170" y="360" width="90" height="50" as="geometry" />
        </mxCell>
        <mxCell id="ESVv2EAXzNbeV4ChciWU-5" value="animate.css" style="rounded=0;whiteSpace=wrap;html=1;" vertex="1" parent="1">
          <mxGeometry x="450" y="360" width="90" height="50" as="geometry" />
        </mxCell>
        <mxCell id="ESVv2EAXzNbeV4ChciWU-9" value="&lt;font style=&quot;font-size: 22px&quot;&gt;web元素交互动画&lt;/font&gt;" style="text;html=1;strokeColor=none;fillColor=none;align=center;verticalAlign=middle;whiteSpace=wrap;rounded=0;" vertex="1" parent="1">
          <mxGeometry x="250" y="40" width="210" height="40" as="geometry" />
        </mxCell>
      </root>
    </mxGraphModel>
  </diagram>
</mxfile>
